<svg
    width="42"
    height="42"
    viewBox="0 0 42 42"
    fill="none"
    xmlns="http://www.w3.org/2000/svg"
    >
    <circle opacity="0.1" cx="21" cy="21" r="21" fill="#F539F8" />
    <path
        d="M28.0478 17.231L22.7595 22.4236C21.5318 23.6262 19.5445 23.6262 18.3169 22.4236L13.0289 17.231C13.02 17.3284 13 17.4166 13 17.5135V24.9158C13.0021 26.6183 14.4073 27.9982 16.1411 28.0002H24.9359C26.6697 27.9982 28.0749 26.6183 28.0769 24.9158V17.5135C28.0766 17.4166 28.0566 17.3284 28.0478 17.231Z"
        fill="#F539F8"
    />
    <path
        d="M21.9595 21.0064L28.0769 15.4629C27.4742 14.5575 26.3936 14.0028 25.2264 14H15.8503C14.6833 14.0028 13.6024 14.5575 13 15.4629L19.1174 21.0064C19.9029 21.7158 21.1737 21.7158 21.9595 21.0064Z"
        fill="#F539F8"
    />
</svg>